HIERARCHY
ROOT Pelvis
{
	OFFSET 0.000000 0.000000 0.000000
	CHANNELS 6 Xposition Yposition Zposition Xrotation Yrotation Zrotation
	JOINT LeftUpLeg_virtual
	{
		OFFSET 0.000000 0.000000 0.000000
		CHANNELS 3 Xrotation Yrotation Zrotation
		JOINT LeftUpLeg
		{
			OFFSET 18.735201 -5.666702 -4.541200
			CHANNELS 3 Xrotation Yrotation Zrotation
			JOINT LeftLeg
			{
				OFFSET -0.021200 -31.938179 0.493100
				CHANNELS 3 Xrotation Yrotation Zrotation
				JOINT LeftFoot
				{
					OFFSET 0.021200 -31.938179 -4.336299
					CHANNELS 3 Xrotation Yrotation Zrotation
					JOINT LeftToeBase
					{
						OFFSET 0.943001 -26.722000 15.023500
						CHANNELS 3 Xrotation Yrotation Zrotation
						End Site
						{
							OFFSET 0 0 0
						}
					}
				}
			}
		}
	}
	JOINT RightUpLeg_virtual
	{
		OFFSET 0.000000 0.000000 0.000000
		CHANNELS 3 Xrotation Yrotation Zrotation
		JOINT RightUpLeg
		{
			OFFSET -18.735201 -5.666702 -4.541200
			CHANNELS 3 Xrotation Yrotation Zrotation
			JOINT RightLeg
			{
				OFFSET 0.018946 -31.938133 0.493100
				CHANNELS 3 Xrotation Yrotation Zrotation
				JOINT RightFoot
				{
					OFFSET -0.018946 -31.938126 -4.336299
					CHANNELS 3 Xrotation Yrotation Zrotation
					JOINT RightToeBase
					{
						OFFSET -0.943001 -26.722004 15.023500
						CHANNELS 3 Xrotation Yrotation Zrotation
						End Site
						{
							OFFSET 0 0 0
						}
					}
				}
			}
		}
	}
	JOINT Hips_virtual
	{
		OFFSET 0.000000 0.000000 0.000000
		CHANNELS 3 Xrotation Yrotation Zrotation
		JOINT Hips
		{
			OFFSET -0.000000 -0.000000 -0.000000
			CHANNELS 3 Xrotation Yrotation Zrotation
			JOINT Spine
			{
				OFFSET 0.000000 10.199997 -0.299500
				CHANNELS 3 Xrotation Yrotation Zrotation
				JOINT Spine1
				{
					OFFSET 0.000000 11.900002 -1.516600
					CHANNELS 3 Xrotation Yrotation Zrotation
					JOINT Spine2
					{
						OFFSET 0.000000 13.600006 -2.842500
						CHANNELS 3 Xrotation Yrotation Zrotation
						JOINT Neck_virtual
						{
							OFFSET 0.000000 0.000000 0.000000
							CHANNELS 3 Xrotation Yrotation Zrotation
							JOINT Neck
							{
								OFFSET 0.000000 9.624100 -2.890100
								CHANNELS 3 Xrotation Yrotation Zrotation
								JOINT Head
								{
									OFFSET 0.000000 14.068802 -1.351900
									CHANNELS 3 Xrotation Yrotation Zrotation
									End Site
									{
										OFFSET 0 0 0
									}
								}
							}
						}
						JOINT LeftShoulder_virtual
						{
							OFFSET 0.000000 0.000000 0.000000
							CHANNELS 3 Xrotation Yrotation Zrotation
							JOINT LeftShoulder
							{
								OFFSET 15.263000 10.923401 -0.547700
								CHANNELS 3 Xrotation Yrotation Zrotation
								JOINT LeftArm
								{
									OFFSET 25.438599 -2.830597 -13.032500
									CHANNELS 3 Xrotation Yrotation Zrotation
									JOINT LeftForeArm
									{
										OFFSET 29.960503 0.000000 0.000000
										CHANNELS 3 Xrotation Yrotation Zrotation
										JOINT LeftHand
										{
											OFFSET 27.849251 0.000000 0.000000
											CHANNELS 3 Xrotation Yrotation Zrotation
											End Site
											{
												OFFSET 0 0 0
											}
										}
									}
								}
							}
						}
						JOINT RightShoulder_virtual
						{
							OFFSET 0.000000 0.000000 0.000000
							CHANNELS 3 Xrotation Yrotation Zrotation
							JOINT RightShoulder
							{
								OFFSET -15.263000 10.923401 -0.547700
								CHANNELS 3 Xrotation Yrotation Zrotation
								JOINT RightArm
								{
									OFFSET -25.438599 -2.830597 -13.032500
									CHANNELS 3 Xrotation Yrotation Zrotation
									JOINT RightForeArm
									{
										OFFSET -29.960503 0.000000 0.000000
										CHANNELS 3 Xrotation Yrotation Zrotation
										JOINT RightHand
										{
											OFFSET -27.849251 0.000000 0.000000
											CHANNELS 3 Xrotation Yrotation Zrotation
											End Site
											{
												OFFSET 0 0 0
											}
										}
									}
								}
							}
						}
					}
				}
			}
		}
	}
}
MOTION
Frames: 13
Frame Time: 0.03333333
-6.865624 91.799156 15.761799 0.000000 0.000000 0.000000 -5.972639 -9.285275 -1.884735 -15.517949 5.232619 15.245413 23.476969 1.026845 2.248332 2.464517 -10.809167 -6.659236 0.000000 0.000000 0.000000 -6.751836 -8.216411 -1.800373 9.533487 -7.206173 5.157746 8.489701 -11.411222 -6.149947 -2.882222 -13.976398 5.995692 0.000000 0.000000 0.000000 -6.350562 -8.433288 -1.680015 -0.811420 0.217585 0.039645 5.001057 1.217708 4.242544 -1.812379 3.087708 2.693442 0.000000 0.000000 0.000000 -2.404958 2.389033 2.019644 6.651850 -0.850902 0.235417 0.000000 0.000000 0.000000 -2.482734 2.836413 2.515430 3.957479 -15.545666 -14.111602 2.299548 -2.717353 -64.906256 -8.385949 -2.428472 -9.089596 0.000000 0.000000 0.000000 -0.863916 2.612515 1.797484 4.268007 17.470275 13.601281 28.104091 1.346727 52.460634 -6.892120 17.966492 10.195902 0.000000 0.000000 0.000000 
-6.769675 91.975342 15.850880 0.000000 0.000000 0.000000 -5.615694 -10.053624 -1.918632 -15.295886 5.743660 15.375154 23.086468 1.254198 1.921222 2.549868 -10.066461 -6.667745 0.000000 0.000000 0.000000 -6.374414 -9.017246 -1.838859 8.899322 -7.087987 4.776509 8.375064 -11.322899 -5.997484 -2.159214 -13.271863 6.306358 0.000000 0.000000 0.000000 -5.972819 -9.238487 -1.725701 -0.801973 0.208835 0.032595 4.985030 0.964208 4.390731 -1.939542 2.827641 2.693016 0.000000 0.000000 0.000000 -2.600068 2.144372 2.003483 6.640059 -0.813488 0.332126 0.000000 0.000000 0.000000 -2.718885 2.580300 2.459667 3.972036 -15.386581 -14.489355 2.701825 -1.856751 -64.709287 -8.481860 -2.004745 -9.134274 0.000000 0.000000 0.000000 -1.185138 2.329723 1.820573 4.607808 16.388187 13.409900 29.047114 2.451310 50.724748 -7.019271 16.603053 10.503725 0.000000 0.000000 0.000000 
-6.680523 92.151649 15.899456 0.000000 0.000000 0.000000 -5.268511 -11.053032 -1.994515 -14.968616 6.247354 15.557141 22.685094 1.448496 1.656840 2.477803 -9.230777 -6.664871 0.000000 0.000000 0.000000 -6.006325 -10.029686 -1.915080 8.149913 -6.878785 4.430139 8.268735 -11.225389 -5.838904 -1.499704 -12.385295 6.623586 0.000000 0.000000 0.000000 -5.614524 -10.231449 -1.818360 -0.793370 0.200497 0.025675 4.976426 0.755158 4.571333 -2.040821 2.577228 2.724647 0.000000 0.000000 0.000000 -2.777776 1.905057 2.002422 6.605262 -0.774046 0.430856 0.000000 0.000000 0.000000 -2.967166 2.340566 2.442822 3.964026 -15.281194 -14.889906 3.065923 -1.065664 -64.626724 -8.543471 -1.630789 -9.201286 0.000000 0.000000 0.000000 -1.524429 2.050747 1.865735 4.862833 15.549831 13.567753 28.825748 3.058073 49.278292 -6.993438 15.035297 10.613070 0.000000 0.000000 0.000000 
-6.598189 92.313026 15.906178 0.000000 0.000000 0.000000 -4.934016 -12.221724 -2.103904 -14.600851 6.709215 15.784188 22.302968 1.581274 1.444609 2.257920 -8.365134 -6.711057 0.000000 0.000000 0.000000 -5.653266 -11.202287 -2.023172 7.301763 -6.622013 4.125998 8.190883 -11.154372 -5.661347 -1.057227 -11.404860 6.887769 0.000000 0.000000 0.000000 -5.279847 -11.348725 -1.944329 -0.785555 0.198760 0.022654 4.979983 0.600977 4.762054 -2.108385 2.360905 2.775718 0.000000 0.000000 0.000000 -2.942470 1.689461 2.000682 6.543340 -0.737423 0.528208 0.000000 0.000000 0.000000 -3.207616 2.134063 2.459526 3.945436 -15.233023 -15.248165 3.430670 -0.480227 -64.635549 -8.570761 -1.374713 -9.293721 0.000000 0.000000 0.000000 -1.842798 1.801957 1.920562 5.040449 14.935698 13.953405 27.635581 3.428886 48.230192 -6.829485 13.521321 10.524944 0.000000 0.000000 0.000000 
-6.526468 92.447739 15.888206 0.000000 0.000000 0.000000 -4.632244 -13.480496 -2.239179 -14.277179 7.144884 16.064719 22.035838 1.693765 1.253511 1.981547 -7.470084 -6.771109 0.000000 0.000000 0.000000 -5.327533 -12.478692 -2.157823 6.374269 -6.383083 3.865099 8.223990 -11.123101 -5.435436 -0.787864 -10.383054 7.098838 0.000000 0.000000 0.000000 -4.970026 -12.522506 -2.086953 -0.778064 0.203415 0.024270 4.991471 0.502885 4.937901 -2.131774 2.191022 2.834877 0.000000 0.000000 0.000000 -3.095550 1.508555 1.994154 6.449277 -0.709480 0.620046 0.000000 0.000000 0.000000 -3.428304 1.968996 2.491368 3.922089 -15.246203 -15.524849 3.817134 -0.181149 -64.678128 -8.564660 -1.262330 -9.406469 0.000000 0.000000 0.000000 -2.113710 1.599391 1.971013 5.166583 14.518566 14.365242 25.887802 3.976565 47.507009 -6.542318 12.241796 10.252022 0.000000 0.000000 0.000000 
-6.465656 92.567116 15.838982 0.000000 0.000000 0.000000 -4.364770 -14.754008 -2.391230 -14.035923 7.540050 16.381206 21.874946 1.805905 1.067447 1.681685 -6.568202 -6.828057 0.000000 0.000000 0.000000 -5.040298 -13.769541 -2.309329 5.402327 -6.188100 3.640284 8.329802 -11.128799 -5.172592 -0.529548 -9.359460 7.268273 0.000000 0.000000 0.000000 -4.683669 -13.698266 -2.235077 -0.769741 0.208318 0.026984 5.014230 0.438444 5.083962 -2.113973 2.063711 2.896842 0.000000 0.000000 0.000000 -3.233289 1.366636 1.989555 6.324825 -0.693715 0.706724 0.000000 0.000000 0.000000 -3.616414 1.841322 2.526042 3.890618 -15.326087 -15.716110 4.214718 -0.145609 -64.706569 -8.525195 -1.299216 -9.529529 0.000000 0.000000 0.000000 -2.343871 1.446953 2.013229 5.271972 14.242380 14.664510 23.989870 5.064210 46.927942 -6.174377 11.442067 9.851663 0.000000 0.000000 0.000000 
-6.408337 92.679474 15.764538 0.000000 0.000000 0.000000 -4.124817 -15.960484 -2.547459 -13.841036 7.836820 16.688560 21.745116 1.919227 0.903132 1.380655 -5.670945 -6.846553 0.000000 0.000000 0.000000 -4.787306 -14.999650 -2.467422 4.466158 -6.031123 3.463736 8.412153 -11.144752 -4.903591 -0.201119 -8.361751 7.393232 0.000000 0.000000 0.000000 -4.412611 -14.831011 -2.380655 -0.762440 0.209194 0.028051 5.031998 0.386063 5.198913 -2.081719 1.962685 2.956692 0.000000 0.000000 0.000000 -3.358504 1.264561 1.993344 6.176585 -0.695556 0.788314 0.000000 0.000000 0.000000 -3.763129 1.746309 2.555324 3.850084 -15.484570 -15.830749 4.569769 -0.362045 -64.701337 -8.453801 -1.438310 -9.648361 0.000000 0.000000 0.000000 -2.536089 1.334878 2.044308 5.373239 14.074615 14.797610 22.308199 6.809769 46.379167 -5.747701 11.185490 9.389021 0.000000 0.000000 0.000000 
-6.355254 92.795586 15.684708 0.000000 0.000000 0.000000 -3.895476 -17.059514 -2.694803 -13.615746 8.027067 16.931323 21.527793 2.043487 0.776400 1.103911 -4.796064 -6.830372 0.000000 0.000000 0.000000 -4.558859 -16.119258 -2.619486 3.622705 -5.885277 3.342887 8.412679 -11.147680 -4.664640 0.179673 -7.414841 7.455822 0.000000 0.000000 0.000000 -4.159772 -15.888067 -2.514689 -0.756474 0.204092 0.025946 5.034651 0.338362 5.286714 -2.044023 1.886296 3.014214 0.000000 0.000000 0.000000 -3.465542 1.200573 2.014253 6.012179 -0.712263 0.861953 0.000000 0.000000 0.000000 -3.888265 1.680572 2.575679 3.794315 -15.707227 -15.900834 4.802732 -0.817734 -64.675546 -8.342081 -1.590474 -9.744518 0.000000 0.000000 0.000000 -2.698208 1.260954 2.070984 5.471414 13.989029 14.778678 20.899305 9.161212 45.896272 -5.283465 11.316589 8.889892 0.000000 0.000000 0.000000 
-6.294221 92.919876 15.594402 0.000000 0.000000 0.000000 -3.669140 -18.019876 -2.824788 -13.320558 8.156963 17.080556 21.131924 2.179561 0.682059 0.855281 -3.985007 -6.814611 0.000000 0.000000 0.000000 -4.352354 -17.089726 -2.756301 2.913406 -5.767046 3.261943 8.306651 -11.141156 -4.468327 0.575182 -6.551924 7.426850 0.000000 0.000000 0.000000 -3.921781 -16.844505 -2.633497 -0.754101 0.197129 0.021041 5.030334 0.294969 5.354999 -2.002213 1.838209 3.068196 0.000000 0.000000 0.000000 -3.558602 1.175659 2.049092 5.843316 -0.740374 0.925297 0.000000 0.000000 0.000000 -3.998777 1.644490 2.591128 3.717951 -15.992876 -15.945866 4.823825 -1.483137 -64.634183 -8.198555 -1.711253 -9.808225 0.000000 0.000000 0.000000 -2.816534 1.227545 2.102442 5.560096 13.968615 14.666423 19.655048 11.917644 45.517170 -4.820488 11.696911 8.395403 0.000000 0.000000 0.000000 
-6.224604 93.041176 15.503120 0.000000 0.000000 0.000000 -3.446731 -18.828347 -2.937813 -13.014036 8.266846 17.151537 20.593167 2.346333 0.600615 0.705085 -3.248121 -6.788068 0.000000 0.000000 0.000000 -4.148066 -17.903376 -2.878496 2.314856 -5.713455 3.215492 8.125255 -11.137587 -4.301033 0.956588 -5.791844 7.300017 0.000000 0.000000 0.000000 -3.687595 -17.679899 -2.735404 -0.755674 0.191660 0.014613 5.025984 0.272024 5.421179 -1.952172 1.824034 3.116976 0.000000 0.000000 0.000000 -3.640770 1.185979 2.087630 5.677177 -0.774938 0.974179 0.000000 0.000000 0.000000 -4.107075 1.641382 2.605355 3.624953 -16.318241 -15.974125 4.597889 -2.380563 -64.584780 -8.036234 -1.779967 -9.840134 0.000000 0.000000 0.000000 -2.888516 1.232546 2.144358 5.626740 14.044624 14.508676 18.397880 14.862992 45.374569 -4.380382 12.149603 7.921603 0.000000 0.000000 0.000000 
-6.144265 93.151062 15.410583 0.000000 0.000000 0.000000 -3.228315 -19.495728 -3.037808 -12.802616 8.398474 17.178361 20.074061 2.554178 0.511196 0.703761 -2.567431 -6.709792 0.000000 0.000000 0.000000 -3.939117 -18.570526 -2.989287 1.798908 -5.725247 3.194532 7.909700 -11.130643 -4.143396 1.415490 -5.133125 7.110407 0.000000 0.000000 0.000000 -3.457127 -18.377135 -2.821690 -0.758761 0.190566 0.009926 5.026858 0.275616 5.493244 -1.876501 1.847054 3.158175 0.000000 0.000000 0.000000 -3.711978 1.223306 2.119213 5.515710 -0.811148 1.010348 0.000000 0.000000 0.000000 -4.213268 1.664976 2.619618 3.519954 -16.659251 -15.995823 4.179891 -3.511539 -64.511628 -7.878195 -1.834331 -9.859318 0.000000 0.000000 0.000000 -2.910948 1.271417 2.200966 5.683539 14.248451 14.342658 17.016424 17.806262 45.466865 -4.003944 12.692013 7.503237 0.000000 0.000000 0.000000 
-6.055054 93.241859 15.318291 0.000000 0.000000 0.000000 -3.015059 -20.041472 -3.126078 -12.708484 8.543461 17.183373 19.639758 2.784148 0.408470 0.787155 -1.968754 -6.591013 0.000000 0.000000 0.000000 -3.717885 -19.108846 -3.086227 1.363431 -5.772272 3.201136 7.636513 -11.099190 -3.998427 2.067456 -4.549978 6.913161 0.000000 0.000000 0.000000 -3.229214 -18.935345 -2.897959 -0.762874 0.192913 0.007476 5.027320 0.301522 5.566439 -1.777082 1.895588 3.192363 0.000000 0.000000 0.000000 -3.778642 1.277413 2.140903 5.360987 -0.848688 1.039756 0.000000 0.000000 0.000000 -4.314885 1.707440 2.632467 3.408280 -17.002776 -16.009646 3.674181 -4.848979 -64.398227 -7.750141 -1.981819 -9.890107 0.000000 0.000000 0.000000 -2.892223 1.330948 2.269132 5.740502 14.613215 14.167540 15.616790 20.595928 45.620186 -3.717892 13.466876 7.203060 0.000000 0.000000 0.000000 
-5.962424 93.319443 15.220615 0.000000 0.000000 0.000000 -2.795996 -20.491534 -3.198556 -12.695139 8.659815 17.170363 19.241676 2.989127 0.300695 0.893284 -1.505809 -6.492613 0.000000 0.000000 0.000000 -3.481399 -19.546321 -3.165505 1.023521 -5.818840 3.247168 7.241386 -11.036860 -3.885670 2.876821 -4.049779 6.731460 0.000000 0.000000 0.000000 -3.000303 -19.374967 -2.965643 -0.766519 0.195875 0.007158 5.011910 0.338405 5.620508 -1.663818 1.950203 3.220793 0.000000 0.000000 0.000000 -3.838348 1.332313 2.158531 5.208010 -0.889271 1.072785 0.000000 0.000000 0.000000 -4.408356 1.751909 2.640042 3.299300 -17.313619 -16.011355 3.191188 -6.360046 -64.227609 -7.668515 -2.281549 -9.953199 0.000000 0.000000 0.000000 -2.857127 1.391726 2.338928 5.815361 15.151865 13.975455 14.390428 23.117400 45.600016 -3.531175 14.581428 7.058069 0.000000 0.000000 0.000000 
